<svg width="31" height="32" viewBox="0 0 31 32" fill="none" xmlns="http://www.w3.org/2000/svg">
<path d="M14.5556 0L7.33649 31.9971H0.000488281L3.77162 15.2876C3.77434 15.2822 3.77554 15.2757 3.77506 15.2692L7.21961 0H14.5556Z" fill="white"/>
<path d="M22.9736 0L15.7545 31.9971H8.41846L12.114 15.6174L15.6376 0H22.9736Z" fill="white"/>
<path d="M30.2879 32.0001H22.9554L21.6525 26.2311V26.2265L19.8752 18.3495L23.5432 2.09686L30.2879 32.0001Z" fill="url(#paint0_linear_2_49)"/>
<g style="mix-blend-mode:screen" opacity="0.4">
<g style="mix-blend-mode:screen" opacity="0.4">
<path d="M13.6276 0.942261L0.935669 31.0572L7.73195 0.942261H13.6276Z" fill="white"/>
</g>
</g>
<g style="mix-blend-mode:screen" opacity="0.4">
<g style="mix-blend-mode:screen" opacity="0.4">
<path d="M22.0483 0.940918L9.35645 31.0558L16.1527 0.940918H22.0483Z" fill="white"/>
</g>
</g>
<g style="mix-blend-mode:multiply" opacity="0.3">
<g style="mix-blend-mode:multiply" opacity="0.3">
<path d="M23.5371 2.09406L21.6464 26.226L19.8684 18.3467L23.5371 2.09406Z" fill="black"/>
</g>
</g>
<g style="mix-blend-mode:multiply" opacity="0.3">
<g style="mix-blend-mode:multiply" opacity="0.3">
<path d="M22.9709 0.000610352L15.7518 31.9977H8.41577C9.63958 31.8989 10.86 31.8565 12.0838 31.7813L13.916 31.706L15.5558 31.6537C16.099 29.0516 16.6593 26.4543 17.2368 23.862L18.1306 19.8623L19.0451 15.8674C19.6673 13.2088 20.2964 10.5549 20.9461 7.90578C21.2761 6.58825 21.5992 5.26131 21.9396 3.94849C22.2799 2.63567 22.6134 1.30826 22.9709 0.000610352Z" fill="black"/>
</g>
</g>
<g style="mix-blend-mode:multiply" opacity="0.3">
<g style="mix-blend-mode:multiply" opacity="0.3">
<path d="M14.5551 0.000366211L7.33601 31.9975H0C1.22381 31.8987 2.44419 31.8563 3.668 31.781L5.50029 31.7057L7.14006 31.6535C7.68322 29.0514 8.24356 26.4541 8.82109 23.8617L9.71488 19.8621L10.6293 15.8672C11.2515 13.2086 11.8806 10.5547 12.5303 7.90553C12.8604 6.588 13.1835 5.26107 13.5238 3.94824C13.8642 2.63542 14.1976 1.30801 14.5551 0.000366211Z" fill="black"/>
</g>
</g>
<g style="mix-blend-mode:multiply" opacity="0.3">
<g style="mix-blend-mode:multiply" opacity="0.3">
<path d="M12.5457 0.000610352C11.6587 0.127187 10.7718 0.20765 9.88146 0.268821C9.43799 0.30176 8.99453 0.334698 8.55107 0.35352C8.18324 0.372341 7.81541 0.391163 7.44758 0.400574C7.33414 0.951112 7.22069 1.49742 7.10381 2.04748L6.68098 3.96307C6.54347 4.59784 6.38878 5.23355 6.24439 5.86878C6.10001 6.50402 5.94875 7.13926 5.79406 7.76979C5.63936 8.40032 5.48811 9.04026 5.3231 9.66609C5.15809 10.2919 5.00339 10.9271 4.83495 11.553C4.50149 12.8046 4.15429 14.0422 3.77271 15.2703L7.21726 0.00108064L12.5457 0.000610352Z" fill="black"/>
</g>
</g>
<g style="mix-blend-mode:multiply" opacity="0.3">
<g style="mix-blend-mode:multiply" opacity="0.3">
<path d="M21.0816 0.000610352C20.1741 0.127187 19.2666 0.20765 18.359 0.268821C17.9053 0.305837 17.4515 0.33407 16.9977 0.35352C16.6196 0.372341 16.2449 0.391163 15.8667 0.404809L15.5126 2.08513L15.0829 4.0426L14.636 5.99018C14.4882 6.64471 14.3335 7.28889 14.1754 7.93354C14.0173 8.57819 13.8626 9.22754 13.6941 9.87219C13.5257 10.5168 13.371 11.162 13.1957 11.7972C12.8588 13.0818 12.5012 14.357 12.1128 15.618L15.6364 0.000610352H21.0816Z" fill="black"/>
</g>
</g>
<g style="mix-blend-mode:multiply" opacity="0.3">
<g style="mix-blend-mode:multiply" opacity="0.3">
<path d="M26.6162 31.7764C27.7197 31.7251 28.8198 31.6823 29.9233 31.6498C29.6586 30.5629 29.4008 29.4759 29.1429 28.3843C28.8473 27.1467 28.5585 25.9043 28.2766 24.6571C27.7025 22.173 27.1491 19.6745 26.599 17.1806L25.7912 13.4251L25.0074 9.66073C24.753 8.40437 24.4952 7.14853 24.258 5.88747C24.0139 4.62168 23.763 3.36485 23.5395 2.09485L30.2842 31.998H22.9517C24.172 31.8917 25.3959 31.8475 26.6162 31.7764Z" fill="black"/>
</g>
</g>
<defs>
<linearGradient id="paint0_linear_2_49" x1="27.5494" y1="32.3888" x2="15.0334" y2="26.974" gradientUnits="userSpaceOnUse">
<stop stop-color="#3E6896"/>
<stop offset="0.247" stop-color="#355881"/>
<stop offset="0.75" stop-color="#1F324E"/>
<stop offset="1" stop-color="#131D32"/>
</linearGradient>
</defs>
</svg>
